<svg width="37" height="37" viewBox="0 0 37 37" fill="none" xmlns="http://www.w3.org/2000/svg">
<circle cx="18.5" cy="18.5" r="16.5" fill="#F0F0F0" stroke="#3B60BD" stroke-width="4"/>
<path opacity="0.9" d="M26.4314 12.564L15.7802 23.3857C15.7085 23.4587 15.6234 23.5167 15.5297 23.5562C15.436 23.5958 15.3355 23.6162 15.2341 23.6162C15.1326 23.6162 15.0321 23.5958 14.9384 23.5562C14.8447 23.5167 14.7596 23.4587 14.688 23.3857L10.569 19.1966C10.4974 19.1235 10.4123 19.0655 10.3186 19.026C10.2249 18.9864 10.1244 18.9661 10.0229 18.9661C9.92144 18.9661 9.82097 18.9864 9.72725 19.026C9.63354 19.0655 9.54844 19.1235 9.47683 19.1966C9.40493 19.2693 9.34789 19.3558 9.30896 19.451C9.27004 19.5462 9.25 19.6483 9.25 19.7514C9.25 19.8545 9.27004 19.9566 9.30896 20.0518C9.34789 20.1471 9.40493 20.2335 9.47683 20.3063L13.5973 24.4923C14.032 24.9331 14.6211 25.1807 15.2352 25.1807C15.8494 25.1807 16.4384 24.9331 16.8731 24.4923L27.5236 13.6729C27.5953 13.6002 27.6523 13.5138 27.6911 13.4186C27.73 13.3235 27.75 13.2215 27.75 13.1184C27.75 13.0154 27.73 12.9134 27.6911 12.8183C27.6523 12.7231 27.5953 12.6367 27.5236 12.564C27.4519 12.4909 27.3668 12.433 27.2731 12.3934C27.1794 12.3539 27.0789 12.3335 26.9775 12.3335C26.876 12.3335 26.7755 12.3539 26.6818 12.3934C26.5881 12.433 26.503 12.4909 26.4314 12.564Z" fill="#3B60BD"/>
<path opacity="0.9" fill-rule="evenodd" clip-rule="evenodd" d="M14.6879 23.3856C14.6931 23.3909 14.6983 23.3961 14.7037 23.4012C14.704 23.4015 14.7043 23.4018 14.7046 23.4021C14.7726 23.4674 14.8518 23.5196 14.9383 23.5561C15.032 23.5957 15.1325 23.616 15.234 23.616C15.2343 23.616 15.2347 23.616 15.2351 23.616C15.3362 23.6159 15.4363 23.5955 15.5296 23.5561C15.6166 23.5194 15.6962 23.4668 15.7645 23.401C15.7648 23.4007 15.7651 23.4004 15.7654 23.4001C15.7704 23.3953 15.7752 23.3905 15.78 23.3856L26.4313 12.5639C26.5029 12.4908 26.588 12.4328 26.6817 12.3933C26.7754 12.3537 26.8759 12.3334 26.9774 12.3334C27.0788 12.3334 27.1793 12.3537 27.273 12.3933C27.3667 12.4328 27.4518 12.4908 27.5235 12.5639C27.5952 12.6366 27.6522 12.723 27.691 12.8182C27.7299 12.9133 27.7499 13.0153 27.7499 13.1183C27.7499 13.2214 27.7299 13.3234 27.691 13.4185C27.6556 13.5052 27.6053 13.5846 27.5423 13.653C27.5416 13.6538 27.5409 13.6545 27.5402 13.6553C27.5347 13.6612 27.5291 13.6671 27.5235 13.6728L16.873 24.4922C16.6597 24.7085 16.4093 24.8783 16.1369 24.9951C15.8542 25.1164 15.5479 25.1806 15.2351 25.1806C15.2347 25.1806 15.2343 25.1806 15.234 25.1806C14.9208 25.1805 14.6142 25.1159 14.3313 24.9943C14.0598 24.8774 13.81 24.708 13.5972 24.4922L9.47672 20.3062C9.47073 20.3001 9.46484 20.294 9.45905 20.2877C9.45852 20.2871 9.45799 20.2866 9.45746 20.286C9.39459 20.2176 9.34424 20.1383 9.30885 20.0517C9.26993 19.9565 9.24989 19.8544 9.24989 19.7513C9.24989 19.6482 9.26993 19.5461 9.30885 19.4509C9.34778 19.3557 9.40483 19.2692 9.47672 19.1964C9.54833 19.1234 9.63343 19.0654 9.72715 19.0259C9.82086 18.9863 9.92133 18.966 10.0228 18.966C10.1243 18.966 10.2248 18.9863 10.3185 19.0259C10.4122 19.0654 10.4973 19.1234 10.5689 19.1964L14.6879 23.3856ZM8.01278 21.7492C7.75155 21.4843 7.54595 21.1715 7.40614 20.8296C7.26605 20.4868 7.19434 20.1205 7.19434 19.7513C7.19434 19.3821 7.26605 19.0158 7.40614 18.6731C7.54574 18.3316 7.75094 18.0193 8.0116 17.7547C8.27209 17.4897 8.58313 17.2776 8.92787 17.1321C9.27391 16.986 9.64611 16.9104 10.0228 16.9104C10.3995 16.9104 10.7717 16.986 11.1177 17.1321C11.4632 17.2779 11.7747 17.4905 12.0355 17.7562C12.0359 17.7566 12.0364 17.757 12.0368 17.7575L15.2344 21.0096L24.9634 11.1249C24.964 11.1242 24.9647 11.1236 24.9653 11.1229C25.226 10.8575 25.5373 10.6452 25.8824 10.4995C26.2285 10.3535 26.6007 10.2778 26.9774 10.2778C27.3541 10.2778 27.7263 10.3535 28.0723 10.4995C28.4172 10.6451 28.7284 10.8573 28.989 11.1225C29.2495 11.3872 29.4546 11.6995 29.594 12.041C29.7339 12.3835 29.8054 12.7495 29.8054 13.1183C29.8054 13.4872 29.7339 13.8532 29.594 14.1957C29.4543 14.5378 29.2487 14.8508 28.9874 15.1158C28.9872 15.116 28.9869 15.1163 28.9867 15.1165L18.3367 25.9354C17.5192 26.7645 16.4044 27.2362 15.2351 27.2362C14.0658 27.2362 12.951 26.7645 12.1335 25.9354L8.01452 21.7509C8.01394 21.7503 8.01336 21.7498 8.01278 21.7492Z" fill="#3B60BD"/>
</svg>
