<svg width="52" height="52" viewBox="0 0 52 52" fill="none" xmlns="http://www.w3.org/2000/svg">
<path d="M9.49489 0C4.23514 0 0 4.23513 0 9.49487V42.5051C0 47.7648 4.23514 51.9999 9.49489 51.9999H27.3862V31.6712H22.0107V24.3522H27.3862V18.0992C27.3862 13.1865 30.5623 8.67587 37.8788 8.67587C40.8411 8.67587 43.0317 8.96026 43.0317 8.96026L42.8594 15.795C42.8594 15.795 40.6253 15.7739 38.1875 15.7739C35.5491 15.7739 35.126 16.9896 35.126 19.0077V24.3523H43.069L42.7229 31.6713H35.126V52H42.5051C47.7649 52 52 47.7649 52 42.5051V9.49492C52 4.23518 47.7649 5.19999e-05 42.5051 5.19999e-05H9.49484L9.49489 0Z" fill="#2F76FF"/>
</svg>
